<svg width="751" height="146" viewBox="0 0 751 146" fill="none" xmlns="http://www.w3.org/2000/svg">
<path d="M132.508 63.3934C132.138 63.9602 131.669 64.7009 131.057 65.6683C126.401 73.037 117.143 88.0615 116.682 88.8022C116.214 89.5428 115.821 90.6236 115.798 92.1502L86.9506 35.2035L57.8461 92.649L46.9329 114.196L41.6955 124.527C35.3017 137.156 22.3479 145.114 8.19247 145.114H0L17.0576 111.445L26.5802 92.649L67.4443 11.9788C71.1702 4.63283 78.7127 0 86.9506 0C91.0695 0 95.0145 1.15632 98.4004 3.23467C101.779 5.31302 104.598 8.30584 106.457 11.9788L132.508 63.3934Z" fill="url(#paint0_linear_68_1728)"/>
<path d="M247.167 19.0113V129.33C247.167 138.044 240.101 145.118 231.379 145.118H142.637L131.422 122.982H209.243C217.957 122.982 225.031 115.915 225.031 107.194V41.1476C225.031 34.9957 220.05 30.0152 213.898 30.0152H197.226C192.011 30.0152 187.651 25.9114 187.492 20.6966C187.386 17.1143 188.792 13.857 191.127 11.5217C193.372 9.26951 196.486 7.87891 199.917 7.87891H236.035C242.187 7.87891 247.167 12.8594 247.167 19.0113Z" fill="white"/>
<path d="M129.041 145.117H113.057C104.373 145.117 96.43 140.235 92.5076 132.496L83.2344 114.199H113.367L129.041 145.117Z" fill="url(#paint1_linear_68_1728)"/>
<path d="M113.365 114.199H46.9336L57.8468 92.6523H91.962C98.3708 92.6523 104.236 96.2422 107.153 101.948C107.153 101.963 107.168 101.978 107.175 101.994L113.365 114.199Z" fill="url(#paint2_linear_68_1728)"/>
<path d="M200.522 21.3053C201.828 21.3053 202.887 20.2462 202.887 18.9398C202.887 17.6333 201.828 16.5742 200.522 16.5742C199.215 16.5742 198.156 17.6333 198.156 18.9398C198.156 20.2462 199.215 21.3053 200.522 21.3053Z" fill="url(#paint3_linear_68_1728)"/>
<path d="M207.338 21.3053C208.645 21.3053 209.704 20.2462 209.704 18.9398C209.704 17.6333 208.645 16.5742 207.338 16.5742C206.032 16.5742 204.973 17.6333 204.973 18.9398C204.973 20.2462 206.032 21.3053 207.338 21.3053Z" fill="url(#paint4_linear_68_1728)"/>
<path d="M214.155 21.3053C215.461 21.3053 216.52 20.2462 216.52 18.9398C216.52 17.6333 215.461 16.5742 214.155 16.5742C212.848 16.5742 211.789 17.6333 211.789 18.9398C211.789 20.2462 212.848 21.3053 214.155 21.3053Z" fill="url(#paint5_linear_68_1728)"/>
<path d="M159.435 96.4117C158.694 98.2558 156.805 103.085 154.984 107.756C152.905 113.084 150.918 118.2 150.827 118.442H150.819L129.945 118.45C129.764 117.989 122.917 100.364 121.33 96.4117C119.727 92.4062 120.528 91.2045 120.528 91.2045C120.528 91.2045 130.096 75.6736 134.888 68.0933C136.18 66.0452 137.125 64.579 137.442 64.1557C138.924 62.153 139.566 64.1557 139.566 64.1557V87.7658C138.191 88.1286 137.185 89.3756 137.185 90.8569C137.185 92.6253 138.614 94.0613 140.382 94.0613C142.151 94.0613 143.587 92.6253 143.587 90.8569C143.587 89.3756 142.574 88.1286 141.206 87.7658V64.1557C141.206 64.1557 141.848 62.153 143.33 64.1557C144.811 66.1585 160.236 91.2045 160.236 91.2045C160.236 91.2045 161.037 92.4062 159.435 96.4117Z" fill="white"/>
<path d="M160.237 91.2045C160.237 91.2045 144.812 66.1585 143.33 64.1557C141.849 62.153 141.207 64.1557 141.207 64.1557V87.7658C142.575 88.1286 143.587 89.3756 143.587 90.8569C143.587 92.6253 142.151 94.0613 140.383 94.0613V118.45H150.82C150.82 118.45 157.833 100.417 159.436 96.4117C161.038 92.4062 160.237 91.2045 160.237 91.2045Z" fill="url(#paint6_linear_68_1728)"/>
<path d="M141.14 44.2734H139.629V49.1859H141.14V44.2734Z" fill="white"/>
<path d="M141.14 56.0586H139.629V60.9711H141.14V56.0586Z" fill="white"/>
<path d="M179.2 72.2541C177.25 55.4383 166.412 41.623 152.038 36.6878H175.565C175.92 38.6604 177.651 40.1568 179.729 40.1568C182.057 40.1568 183.954 38.2674 183.954 35.9321C183.954 33.5968 182.057 31.6998 179.729 31.6998C177.651 31.6998 175.92 33.2038 175.565 35.1763H145.062V31.2539H135.706V35.1763H120.379L121.15 36.6878H128.738C126.591 37.4209 124.528 38.3581 122.555 39.4691L123.243 40.8219C126.848 38.7738 130.793 37.3529 134.958 36.6878H135.706V40.6103H145.062V36.6878H145.788C162.369 39.3179 175.489 53.9117 177.681 72.2541H173.313V83.1597H184.211V72.2541H179.2ZM179.729 33.2113C181.225 33.2113 182.442 34.4357 182.442 35.9321C182.442 37.4285 181.225 38.6453 179.729 38.6453C178.233 38.6453 177.008 37.4285 177.008 35.9321C177.008 34.4357 178.225 33.2113 179.729 33.2113ZM182.699 81.6482H174.824V73.7656H182.699V81.6482Z" fill="url(#paint7_linear_68_1728)"/>
<path d="M288.655 18.0898H287.977V127.026H288.655V18.0898Z" fill="#E6ECF3"/>
<path d="M487.981 78.7519H477.884L459.905 43.2612L441.925 78.7519H431.828L454.856 33.3003L455.567 31.8945H464.243L464.953 33.3003L487.981 78.7519Z" fill="white"/>
<path d="M543.076 35.696V73.5522C543.076 76.4165 540.756 78.7443 537.884 78.7443H503.051V71.1867H530.326C533.191 71.1867 535.518 68.8665 535.518 65.9946V43.2537C535.518 41.1526 533.818 39.4522 531.717 39.4522H522.701V31.8945H539.275C541.376 31.8945 543.076 33.595 543.076 35.696Z" fill="white"/>
<path d="M573.261 31.8945H565.703V78.7519H573.261V31.8945Z" fill="white"/>
<path d="M620.74 48.2115L620.581 48.3853L615.654 53.857L595.883 31.8945H606.048L620.74 48.2115Z" fill="white"/>
<path d="M648.242 78.7588H638.077L623.793 62.8877L623.952 62.7139L628.872 57.2422L648.242 78.7588Z" fill="white"/>
<path d="M648.644 31.8945L627.347 55.5499L622.268 61.1955L606.45 78.7594H596.285L617.182 55.5499L622.268 49.9044L638.479 31.8945H648.644Z" fill="url(#paint8_linear_68_1728)"/>
<path d="M372.473 113.081L376.063 103.082H377.891L381.481 113.081H379.796L378.904 110.572H375.072L374.173 113.081H372.48H372.473ZM375.465 109.075H378.473L376.969 104.714L375.465 109.075Z" fill="#CBD5E1"/>
<path d="M398.377 113.217C398.045 113.217 397.72 113.187 397.395 113.119C397.07 113.051 396.843 112.998 396.707 112.952L396.767 111.388C396.904 111.433 397.062 111.479 397.244 111.539C397.425 111.599 397.629 111.622 397.871 111.622C398.332 111.622 398.642 111.494 398.808 111.252C398.974 111.002 399.057 110.594 399.057 110.027V103.082H400.743V110.489C400.743 111.086 400.675 111.584 400.546 111.985C400.418 112.385 400.176 112.695 399.836 112.907C399.496 113.119 399.012 113.224 398.377 113.224V113.217Z" fill="#CBD5E1"/>
<path d="M412.43 113.216C411.508 113.216 410.715 113.012 410.042 112.612C409.37 112.204 408.856 111.622 408.485 110.858C408.123 110.095 407.934 109.173 407.934 108.107C407.934 107.042 408.115 106.105 408.485 105.334C408.856 104.563 409.377 103.973 410.05 103.565C410.722 103.157 411.516 102.953 412.423 102.953C413.33 102.953 414.116 103.157 414.781 103.565C415.446 103.973 415.96 104.563 416.323 105.334C416.685 106.105 416.867 107.027 416.867 108.107C416.867 109.188 416.685 110.095 416.33 110.858C415.967 111.622 415.453 112.204 414.788 112.612C414.123 113.02 413.33 113.224 412.415 113.224L412.43 113.216ZM412.43 111.811C412.975 111.811 413.443 111.682 413.836 111.425C414.229 111.168 414.531 110.768 414.735 110.231C414.94 109.695 415.053 108.992 415.053 108.123C415.053 107.253 414.947 106.528 414.735 105.976C414.524 105.424 414.222 105.009 413.829 104.752C413.436 104.487 412.975 104.359 412.43 104.359C411.886 104.359 411.418 104.487 411.025 104.759C410.632 105.024 410.329 105.432 410.11 105.991C409.891 106.543 409.785 107.261 409.785 108.13C409.785 108.999 409.891 109.695 410.11 110.239C410.329 110.783 410.632 111.176 411.025 111.433C411.418 111.69 411.886 111.818 412.43 111.818V111.811Z" fill="#CBD5E1"/>
<path d="M427.996 113.217C427.074 113.217 426.333 113.065 425.766 112.756C425.199 112.446 424.791 112.007 424.542 111.425C424.285 110.843 424.164 110.148 424.164 109.324V103.074H425.887V109.498C425.887 110.269 426.076 110.843 426.454 111.214C426.832 111.584 427.346 111.765 427.996 111.765C428.434 111.765 428.812 111.682 429.137 111.524C429.462 111.365 429.711 111.116 429.885 110.783C430.059 110.45 430.15 110.02 430.15 109.498V103.074H431.85V109.423C431.85 110.216 431.722 110.896 431.465 111.456C431.208 112.015 430.792 112.453 430.233 112.756C429.674 113.058 428.925 113.209 428.003 113.209L427.996 113.217Z" fill="#CBD5E1"/>
<path d="M439.555 113.081V103.082H443.613C444.376 103.082 445.011 103.203 445.503 103.437C446.001 103.672 446.364 104.012 446.606 104.442C446.848 104.873 446.969 105.38 446.969 105.954C446.969 106.491 446.878 106.936 446.704 107.299C446.53 107.662 446.304 107.957 446.024 108.183C445.744 108.41 445.45 108.599 445.132 108.743L447.044 113.081H445.291L443.568 109.022H441.248V113.081H439.57H439.555ZM441.232 107.692H443.228C443.863 107.692 444.361 107.541 444.717 107.246C445.072 106.952 445.253 106.543 445.253 106.014C445.253 105.485 445.087 105.1 444.754 104.82C444.422 104.541 443.983 104.397 443.439 104.397H441.225V107.685L441.232 107.692Z" fill="#CBD5E1"/>
<path d="M454.582 113.081V103.082H456.23L461.127 110.224V103.082H462.805V113.081H461.293L456.267 105.742V113.081H454.59H454.582Z" fill="#CBD5E1"/>
<path d="M470.75 113.081V103.082H477.363V104.526H472.45V107.329H476.789V108.75H472.443V111.615H477.469V113.081H470.765H470.75Z" fill="#CBD5E1"/>
<path d="M487.626 113.081V108.849L484.18 103.082H486.009L488.48 107.382L490.906 103.082H492.742L489.304 108.856V113.081H487.626Z" fill="#CBD5E1"/>
<path d="M508.129 113.081V103.082H509.807V113.081H508.129Z" fill="#CBD5E1"/>
<path d="M517.758 113.081V103.082H519.405L524.303 110.224V103.082H525.981V113.081H524.469L519.443 105.742V113.081H517.765H517.758Z" fill="#CBD5E1"/>
<path d="M536.125 113.081V104.601H533.012V103.09H540.811V104.601H537.811V113.081H536.125Z" fill="#CBD5E1"/>
<path d="M551.762 113.216C550.84 113.216 550.047 113.012 549.374 112.612C548.702 112.204 548.188 111.622 547.817 110.858C547.447 110.095 547.266 109.173 547.266 108.107C547.266 107.042 547.447 106.105 547.817 105.334C548.188 104.563 548.709 103.973 549.382 103.565C550.054 103.157 550.848 102.953 551.755 102.953C552.662 102.953 553.448 103.157 554.113 103.565C554.778 103.973 555.292 104.563 555.655 105.334C556.017 106.105 556.199 107.027 556.199 108.107C556.199 109.188 556.017 110.095 555.662 110.858C555.299 111.622 554.785 112.204 554.12 112.612C553.455 113.02 552.662 113.224 551.747 113.224L551.762 113.216ZM551.762 111.811C552.307 111.811 552.775 111.682 553.168 111.425C553.561 111.168 553.863 110.768 554.067 110.231C554.279 109.687 554.385 108.992 554.385 108.123C554.385 107.253 554.279 106.528 554.067 105.976C553.856 105.424 553.554 105.009 553.161 104.752C552.768 104.487 552.307 104.359 551.762 104.359C551.218 104.359 550.75 104.487 550.357 104.759C549.964 105.024 549.661 105.432 549.442 105.991C549.223 106.543 549.117 107.261 549.117 108.13C549.117 108.999 549.223 109.695 549.442 110.239C549.661 110.783 549.964 111.176 550.357 111.433C550.75 111.69 551.218 111.818 551.762 111.818V111.811Z" fill="#CBD5E1"/>
<path d="M572.414 113.081V103.082H579.027V104.526H574.115V107.329H578.453V108.75H574.107V111.615H579.133V113.081H572.429H572.414Z" fill="#CBD5E1"/>
<path d="M586.18 113.081L589.535 107.994L586.293 103.082H588.364L590.586 106.581L592.793 103.082H594.606L591.478 107.79L594.984 113.081H592.898L590.435 109.234L588.016 113.081H586.187H586.18Z" fill="#CBD5E1"/>
<path d="M602.18 113.081V103.082H605.724C606.442 103.082 607.085 103.203 607.659 103.452C608.226 103.702 608.679 104.065 609.004 104.541C609.329 105.017 609.495 105.614 609.495 106.309C609.495 106.967 609.344 107.533 609.05 108.002C608.755 108.471 608.339 108.833 607.81 109.083C607.281 109.332 606.661 109.453 605.951 109.453H603.888V113.073H602.18V113.081ZM603.873 108.108H605.906C606.488 108.108 606.971 107.934 607.342 107.579C607.712 107.231 607.901 106.77 607.901 106.211C607.901 105.652 607.704 105.198 607.319 104.881C606.933 104.563 606.442 104.405 605.86 104.405H603.88V108.1L603.873 108.108Z" fill="#CBD5E1"/>
<path d="M616.629 113.081V103.082H623.242V104.526H618.329V107.329H622.667V108.75H618.322V111.615H623.348V113.081H616.644H616.629Z" fill="#CBD5E1"/>
<path d="M630.914 113.081V103.082H634.973C635.736 103.082 636.371 103.203 636.862 103.437C637.361 103.672 637.724 104.012 637.965 104.442C638.207 104.873 638.328 105.38 638.328 105.954C638.328 106.491 638.237 106.936 638.064 107.299C637.89 107.662 637.663 107.957 637.383 108.183C637.104 108.41 636.809 108.599 636.492 108.743L638.396 113.081H636.643L634.92 109.022H632.599V113.081H630.922H630.914ZM632.592 107.692H634.587C635.222 107.692 635.721 107.541 636.076 107.246C636.431 106.952 636.613 106.543 636.613 106.014C636.613 105.485 636.446 105.1 636.114 104.82C635.781 104.541 635.343 104.397 634.799 104.397H632.584V107.685L632.592 107.692Z" fill="#CBD5E1"/>
<path d="M645.945 113.081V103.082H647.623V113.081H645.945Z" fill="#CBD5E1"/>
<path d="M655.574 113.081V103.082H662.187V104.526H657.275V107.329H661.613V108.75H657.267V111.615H662.293V113.081H655.589H655.574Z" fill="#CBD5E1"/>
<path d="M669.855 113.081V103.082H671.503L676.4 110.224V103.082H678.078V113.081H676.567L671.541 105.742V113.081H669.863H669.855Z" fill="#CBD5E1"/>
<path d="M689.914 113.216C689 113.216 688.214 113.005 687.556 112.581C686.899 112.158 686.392 111.561 686.045 110.783C685.689 110.004 685.516 109.082 685.516 108.016C685.516 106.951 685.689 106.044 686.045 105.288C686.392 104.532 686.899 103.95 687.556 103.55C688.214 103.149 689 102.945 689.922 102.945C690.655 102.945 691.305 103.096 691.872 103.391C692.438 103.686 692.899 104.094 693.247 104.6C693.595 105.107 693.799 105.674 693.867 106.293H692.091C692.023 105.923 691.894 105.598 691.705 105.303C691.516 105.016 691.275 104.782 690.972 104.608C690.67 104.434 690.307 104.351 689.876 104.351C689.347 104.351 688.894 104.48 688.524 104.729C688.153 104.978 687.866 105.379 687.677 105.923C687.481 106.467 687.382 107.17 687.382 108.039C687.382 109.354 687.602 110.306 688.032 110.911C688.463 111.516 689.083 111.81 689.876 111.81C690.3 111.81 690.662 111.72 690.972 111.531C691.282 111.342 691.524 111.092 691.705 110.783C691.894 110.473 692.023 110.133 692.091 109.762H693.867C693.814 110.216 693.701 110.647 693.527 111.062C693.353 111.478 693.111 111.848 692.801 112.173C692.491 112.498 692.098 112.755 691.622 112.944C691.146 113.133 690.587 113.224 689.929 113.224L689.914 113.216Z" fill="#CBD5E1"/>
<path d="M701.297 113.081V103.082H707.91V104.526H702.997V107.329H707.335V108.75H702.99V111.615H708.016V113.081H701.312H701.297Z" fill="#CBD5E1"/>
<path d="M364.914 107.707H329.469V108.463H364.914V107.707Z" fill="url(#paint9_linear_68_1728)"/>
<path d="M751.004 107.707H715.559V108.463H751.004V107.707Z" fill="url(#paint10_linear_68_1728)"/>
<defs>
<linearGradient id="paint0_linear_68_1728" x1="120.844" y1="2.73532e-06" x2="-12.2628" y2="118.161" gradientUnits="userSpaceOnUse">
<stop stop-color="#22D3EE"/>
<stop offset="0.55" stop-color="#2563EB"/>
<stop offset="1" stop-color="#4F46E5"/>
</linearGradient>
<linearGradient id="paint1_linear_68_1728" x1="119.789" y1="165.136" x2="68.6199" y2="127.998" gradientUnits="userSpaceOnUse">
<stop stop-color="#22D3EE"/>
<stop offset="0.55" stop-color="#2563EB"/>
<stop offset="1" stop-color="#322BAA"/>
</linearGradient>
<linearGradient id="paint2_linear_68_1728" x1="122.433" y1="103.543" x2="91.2885" y2="140.743" gradientUnits="userSpaceOnUse">
<stop stop-color="#22D3EE"/>
<stop offset="0.55" stop-color="#2563EB"/>
<stop offset="1" stop-color="#322BAA"/>
</linearGradient>
<linearGradient id="paint3_linear_68_1728" x1="198.132" y1="16.6055" x2="201.283" y2="21.8466" gradientUnits="userSpaceOnUse">
<stop offset="0.100755" stop-color="#60A5FA"/>
<stop offset="1" stop-color="#2563EB"/>
</linearGradient>
<linearGradient id="paint4_linear_68_1728" x1="204.949" y1="16.6055" x2="208.099" y2="21.8465" gradientUnits="userSpaceOnUse">
<stop offset="0.100755" stop-color="#60A5FA"/>
<stop offset="1" stop-color="#2563EB"/>
</linearGradient>
<linearGradient id="paint5_linear_68_1728" x1="211.765" y1="16.6055" x2="214.916" y2="21.8466" gradientUnits="userSpaceOnUse">
<stop offset="0.100755" stop-color="#60A5FA"/>
<stop offset="1" stop-color="#2563EB"/>
</linearGradient>
<linearGradient id="paint6_linear_68_1728" x1="140.281" y1="63.631" x2="177.127" y2="85.9045" gradientUnits="userSpaceOnUse">
<stop offset="0.100755" stop-color="#60A5FA"/>
<stop offset="1" stop-color="#2563EB"/>
</linearGradient>
<linearGradient id="paint7_linear_68_1728" x1="120.055" y1="31.5976" x2="150.941" y2="94.7797" gradientUnits="userSpaceOnUse">
<stop offset="0.100755" stop-color="#60A5FA"/>
<stop offset="1" stop-color="#2563EB"/>
</linearGradient>
<linearGradient id="paint8_linear_68_1728" x1="644.036" y1="31.8945" x2="600.891" y2="78.7563" gradientUnits="userSpaceOnUse">
<stop stop-color="#22D3EE"/>
<stop offset="0.55" stop-color="#2563EB"/>
<stop offset="1" stop-color="#4F46E5"/>
</linearGradient>
<linearGradient id="paint9_linear_68_1728" x1="329.289" y1="107.712" x2="329.303" y2="108.852" gradientUnits="userSpaceOnUse">
<stop offset="0.100755" stop-color="#60A5FA"/>
<stop offset="1" stop-color="#2563EB"/>
</linearGradient>
<linearGradient id="paint10_linear_68_1728" x1="715.379" y1="107.712" x2="715.393" y2="108.852" gradientUnits="userSpaceOnUse">
<stop offset="0.100755" stop-color="#60A5FA"/>
<stop offset="1" stop-color="#2563EB"/>
</linearGradient>
</defs>
</svg>
