<svg width="72" height="42" viewBox="0 0 72 42" fill="none" xmlns="http://www.w3.org/2000/svg">
<path d="M38.3497 18.347C38.2425 18.511 38.1069 18.7254 37.9298 19.0053C36.5824 21.138 33.903 25.4863 33.7695 25.7006C33.6339 25.915 33.5202 26.2278 33.5136 26.6696L25.1648 10.1884L16.7415 26.814L13.5831 33.0499L12.0673 36.0399C10.2168 39.6949 6.46781 41.9981 2.37102 41.9981H0L4.93671 32.2538L7.69269 26.814L19.5194 3.46685C20.5977 1.34081 22.7806 0 25.1648 0C26.3568 0 27.4986 0.334655 28.4785 0.936159C29.4562 1.53766 30.2721 2.40383 30.8101 3.46685L38.3497 18.347Z" fill="url(#paint0_linear_80_160)"/>
<path d="M71.5335 5.50313V37.431C71.5335 39.9529 69.4884 42.0002 66.9642 42.0002H41.2811L38.0352 35.5937H60.5577C63.0796 35.5937 65.1269 33.5485 65.1269 31.0244V11.9097C65.1269 10.1292 63.6855 8.68782 61.905 8.68782H57.0799C55.5706 8.68782 54.3086 7.50012 54.2626 5.99089C54.232 4.95412 54.6389 4.01139 55.3147 3.33552C55.9644 2.68371 56.8655 2.28125 57.8586 2.28125H68.3116C70.0921 2.28125 71.5335 3.72267 71.5335 5.50313Z" fill="white"/>
<path d="M37.347 41.999H32.7209C30.2077 41.999 27.9088 40.586 26.7736 38.3462L24.0898 33.0508H32.8106L37.347 41.999Z" fill="url(#paint1_linear_80_160)"/>
<path d="M32.8083 33.0524H13.582L16.7405 26.8164H26.6139C28.4687 26.8164 30.1661 27.8554 31.0103 29.5068C31.0103 29.5111 31.0147 29.5155 31.0169 29.5199L32.8083 33.0524Z" fill="url(#paint2_linear_80_160)"/>
<path d="M58.0323 6.16612C58.4104 6.16612 58.7169 5.8596 58.7169 5.4815C58.7169 5.10339 58.4104 4.79688 58.0323 4.79688C57.6542 4.79688 57.3477 5.10339 57.3477 5.4815C57.3477 5.8596 57.6542 6.16612 58.0323 6.16612Z" fill="url(#paint3_linear_80_160)"/>
<path d="M60.0088 6.16612C60.3869 6.16612 60.6935 5.8596 60.6935 5.4815C60.6935 5.10339 60.3869 4.79688 60.0088 4.79688C59.6307 4.79688 59.3242 5.10339 59.3242 5.4815C59.3242 5.8596 59.6307 6.16612 60.0088 6.16612Z" fill="url(#paint4_linear_80_160)"/>
<path d="M61.9815 6.16612C62.3596 6.16612 62.6661 5.8596 62.6661 5.4815C62.6661 5.10339 62.3596 4.79688 61.9815 4.79688C61.6034 4.79688 61.2969 5.10339 61.2969 5.4815C61.2969 5.8596 61.6034 6.16612 61.9815 6.16612Z" fill="url(#paint5_linear_80_160)"/>
<path d="M46.1423 27.9055C45.928 28.4392 45.3812 29.8368 44.854 31.1886C44.2525 32.7306 43.6773 34.2114 43.651 34.2814H43.6488L37.6075 34.2836C37.555 34.1502 35.5734 29.0494 35.114 27.9055C34.6503 26.7462 34.8822 26.3984 34.8822 26.3984C34.8822 26.3984 37.6513 21.9035 39.038 19.7097C39.4121 19.1169 39.6855 18.6926 39.7773 18.5701C40.206 17.9905 40.392 18.5701 40.392 18.5701V25.4032C39.9939 25.5082 39.703 25.8691 39.703 26.2978C39.703 26.8096 40.1164 27.2252 40.6282 27.2252C41.14 27.2252 41.5556 26.8096 41.5556 26.2978C41.5556 25.8691 41.2625 25.5082 40.8666 25.4032V18.5701C40.8666 18.5701 41.0525 17.9905 41.4812 18.5701C41.9099 19.1497 46.3742 26.3984 46.3742 26.3984C46.3742 26.3984 46.606 26.7462 46.1423 27.9055Z" fill="white"/>
<path d="M46.3749 26.3984C46.3749 26.3984 41.9107 19.1497 41.482 18.5701C41.0532 17.9905 40.8673 18.5701 40.8673 18.5701V25.4032C41.2632 25.5082 41.5563 25.8691 41.5563 26.2978C41.5563 26.8096 41.1407 27.2252 40.6289 27.2252V34.2836H43.6496C43.6496 34.2836 45.6794 29.0647 46.1431 27.9055C46.6068 26.7462 46.3749 26.3984 46.3749 26.3984Z" fill="url(#paint6_linear_80_160)"/>
<path d="M40.8476 12.8125H40.4102V14.2342H40.8476V12.8125Z" fill="white"/>
<path d="M40.8476 16.2266H40.4102V17.6483H40.8476V16.2266Z" fill="white"/>
<path d="M51.8635 20.9129C51.2992 16.0462 48.1626 12.0478 44.0024 10.6195H50.8114C50.9142 11.1904 51.4151 11.6235 52.0166 11.6235C52.6903 11.6235 53.2393 11.0767 53.2393 10.4008C53.2393 9.72493 52.6903 9.17593 52.0166 9.17593C51.4151 9.17593 50.9142 9.6112 50.8114 10.1821H41.9835V9.04688H39.2757V10.1821H34.8398L35.0629 10.6195H37.259C36.6378 10.8317 36.0407 11.1029 35.4698 11.4245L35.6688 11.816C36.7122 11.2232 37.8539 10.812 39.0591 10.6195H39.2757V11.7547H41.9835V10.6195H42.1935C46.9924 11.3807 50.7895 15.6044 51.4239 20.9129H50.1596V24.0692H53.3137V20.9129H51.8635ZM52.0166 9.61338C52.4497 9.61338 52.8019 9.96772 52.8019 10.4008C52.8019 10.8339 52.4497 11.186 52.0166 11.186C51.5835 11.186 51.2292 10.8339 51.2292 10.4008C51.2292 9.96772 51.5813 9.61338 52.0166 9.61338ZM52.8762 23.6317H50.5971V21.3504H52.8762V23.6317Z" fill="url(#paint7_linear_80_160)"/>
<defs>
<linearGradient id="paint0_linear_80_160" x1="34.9741" y1="7.91642e-07" x2="-3.54904" y2="34.1976" gradientUnits="userSpaceOnUse">
<stop stop-color="#22D3EE"/>
<stop offset="0.55" stop-color="#2563EB"/>
<stop offset="1" stop-color="#4F46E5"/>
</linearGradient>
<linearGradient id="paint1_linear_80_160" x1="34.6691" y1="47.7928" x2="19.8602" y2="37.0443" gradientUnits="userSpaceOnUse">
<stop stop-color="#22D3EE"/>
<stop offset="0.55" stop-color="#2563EB"/>
<stop offset="1" stop-color="#322BAA"/>
</linearGradient>
<linearGradient id="paint2_linear_80_160" x1="35.4327" y1="29.9683" x2="26.419" y2="40.7344" gradientUnits="userSpaceOnUse">
<stop stop-color="#22D3EE"/>
<stop offset="0.55" stop-color="#2563EB"/>
<stop offset="1" stop-color="#322BAA"/>
</linearGradient>
<linearGradient id="paint3_linear_80_160" x1="57.3407" y1="4.80594" x2="58.2526" y2="6.32277" gradientUnits="userSpaceOnUse">
<stop offset="0.100755" stop-color="#60A5FA"/>
<stop offset="1" stop-color="#2563EB"/>
</linearGradient>
<linearGradient id="paint4_linear_80_160" x1="59.3173" y1="4.80594" x2="60.2291" y2="6.32276" gradientUnits="userSpaceOnUse">
<stop offset="0.100755" stop-color="#60A5FA"/>
<stop offset="1" stop-color="#2563EB"/>
</linearGradient>
<linearGradient id="paint5_linear_80_160" x1="61.2899" y1="4.80594" x2="62.2018" y2="6.32277" gradientUnits="userSpaceOnUse">
<stop offset="0.100755" stop-color="#60A5FA"/>
<stop offset="1" stop-color="#2563EB"/>
</linearGradient>
<linearGradient id="paint6_linear_80_160" x1="40.5995" y1="18.4182" x2="51.2631" y2="24.8645" gradientUnits="userSpaceOnUse">
<stop offset="0.100755" stop-color="#60A5FA"/>
<stop offset="1" stop-color="#2563EB"/>
</linearGradient>
<linearGradient id="paint7_linear_80_160" x1="34.7461" y1="9.14633" x2="43.6849" y2="27.4322" gradientUnits="userSpaceOnUse">
<stop offset="0.100755" stop-color="#60A5FA"/>
<stop offset="1" stop-color="#2563EB"/>
</linearGradient>
</defs>
</svg>
