<svg width="994" height="193" viewBox="0 0 994 193" fill="none" xmlns="http://www.w3.org/2000/svg">
<path d="M175.33 83.88C174.84 84.63 174.22 85.61 173.41 86.89C167.25 96.64 155 116.52 154.39 117.5C153.77 118.48 153.25 119.91 153.22 121.93L115.05 46.58L76.54 122.59L62.1 151.1L55.17 164.77C46.71 181.48 29.57 192.01 10.84 192.01H0L22.57 147.46L35.17 122.59L89.24 15.85C94.17 6.13 104.15 0 115.05 0C120.5 0 125.72 1.53 130.2 4.28C134.67 7.03 138.4 10.99 140.86 15.85L175.33 83.88Z" fill="url(#paint0_linear_89_108)"/>
<path d="M327.041 25.1519V171.122C327.041 182.652 317.691 192.012 306.151 192.012H188.731L173.891 162.722H276.861C288.391 162.722 297.751 153.372 297.751 141.832V54.4419C297.751 46.3019 291.161 39.7119 283.021 39.7119H260.961C254.061 39.7119 248.291 34.2819 248.081 27.3819C247.941 22.6419 249.801 18.3319 252.891 15.2419C255.861 12.2619 259.981 10.4219 264.521 10.4219H312.311C320.451 10.4219 327.041 17.0119 327.041 25.1519Z" fill="white"/>
<path d="M170.743 192.012H149.593C138.103 192.012 127.593 185.552 122.403 175.312L110.133 151.102H150.003L170.743 192.012Z" fill="url(#paint1_linear_89_108)"/>
<path d="M150.002 151.1H62.1016L76.5415 122.59H121.682C130.162 122.59 137.922 127.34 141.782 134.89C141.782 134.91 141.802 134.93 141.812 134.95L150.002 151.1Z" fill="url(#paint2_linear_89_108)"/>
<path d="M265.321 28.1897C267.05 28.1897 268.451 26.7883 268.451 25.0597C268.451 23.331 267.05 21.9297 265.321 21.9297C263.593 21.9297 262.191 23.331 262.191 25.0597C262.191 26.7883 263.593 28.1897 265.321 28.1897Z" fill="url(#paint3_linear_89_108)"/>
<path d="M274.341 28.1897C276.07 28.1897 277.471 26.7883 277.471 25.0597C277.471 23.331 276.07 21.9297 274.341 21.9297C272.612 21.9297 271.211 23.331 271.211 25.0597C271.211 26.7883 272.612 28.1897 274.341 28.1897Z" fill="url(#paint4_linear_89_108)"/>
<path d="M283.36 28.1897C285.089 28.1897 286.49 26.7883 286.49 25.0597C286.49 23.331 285.089 21.9297 283.36 21.9297C281.632 21.9297 280.23 23.331 280.23 25.0597C280.23 26.7883 281.632 28.1897 283.36 28.1897Z" fill="url(#paint5_linear_89_108)"/>
<path d="M210.96 127.569C209.98 130.009 207.48 136.399 205.07 142.579C202.32 149.629 199.69 156.399 199.57 156.719H199.56L171.94 156.729C171.7 156.119 162.64 132.799 160.54 127.569C158.42 122.269 159.48 120.679 159.48 120.679C159.48 120.679 172.14 100.129 178.48 90.0987C180.19 87.3887 181.44 85.4487 181.86 84.8887C183.82 82.2387 184.67 84.8887 184.67 84.8887V116.129C182.85 116.609 181.52 118.259 181.52 120.219C181.52 122.559 183.41 124.459 185.75 124.459C188.09 124.459 189.99 122.559 189.99 120.219C189.99 118.259 188.65 116.609 186.84 116.129V84.8887C186.84 84.8887 187.69 82.2387 189.65 84.8887C191.61 87.5387 212.02 120.679 212.02 120.679C212.02 120.679 213.08 122.269 210.96 127.569Z" fill="white"/>
<path d="M212.02 120.679C212.02 120.679 191.61 87.5387 189.65 84.8887C187.69 82.2387 186.84 84.8887 186.84 84.8887V116.129C188.65 116.609 189.99 118.259 189.99 120.219C189.99 122.559 188.09 124.459 185.75 124.459V156.729H199.56C199.56 156.729 208.84 132.869 210.96 127.569C213.08 122.269 212.02 120.679 212.02 120.679Z" fill="url(#paint6_linear_89_108)"/>
<path d="M186.75 58.5781H184.75V65.0781H186.75V58.5781Z" fill="white"/>
<path d="M186.75 74.1719H184.75V80.6719H186.75V74.1719Z" fill="white"/>
<path d="M237.111 95.6016C234.531 73.3516 220.191 55.0716 201.171 48.5416H232.301C232.771 51.1516 235.061 53.1316 237.811 53.1316C240.891 53.1316 243.401 50.6316 243.401 47.5416C243.401 44.4516 240.891 41.9416 237.811 41.9416C235.061 41.9416 232.771 43.9316 232.301 46.5416H191.941V41.3516H179.561V46.5416H159.281L160.301 48.5416H170.341C167.501 49.5116 164.771 50.7516 162.161 52.2216L163.071 54.0116C167.841 51.3016 173.061 49.4216 178.571 48.5416H179.561V53.7316H191.941V48.5416H192.901C214.841 52.0216 232.201 71.3316 235.101 95.6016H229.321V110.032H243.741V95.6016H237.111ZM237.811 43.9416C239.791 43.9416 241.401 45.5616 241.401 47.5416C241.401 49.5216 239.791 51.1316 237.811 51.1316C235.831 51.1316 234.211 49.5216 234.211 47.5416C234.211 45.5616 235.821 43.9416 237.811 43.9416ZM241.741 108.032H231.321V97.6016H241.741V108.032Z" fill="url(#paint7_linear_89_108)"/>
<path d="M381.937 23.9336H381.039V168.074H381.937V23.9336Z" fill="#E6ECF3"/>
<path d="M556.716 123.589H534.999L496.327 47.253L457.655 123.589H435.938L485.468 25.8282L486.996 22.8047H505.658L507.186 25.8282L556.716 123.589Z" fill="white"/>
<path d="M675.218 30.9812V112.405C675.218 118.566 670.228 123.573 664.051 123.573H589.129V107.317H647.795C653.956 107.317 658.963 102.327 658.963 96.1498V47.2368C658.963 42.7178 655.305 39.0603 650.786 39.0603H631.393V22.8047H667.042C671.561 22.8047 675.218 26.4622 675.218 30.9812Z" fill="white"/>
<path d="M740.146 22.8047H723.891V123.589H740.146V22.8047Z" fill="white"/>
<path d="M842.261 57.9004L841.92 58.2743L831.321 70.0434L788.797 22.8047H810.661L842.261 57.9004Z" fill="white"/>
<path d="M901.415 123.604H879.551L848.828 89.4671L849.169 89.0932L859.752 77.3242L901.415 123.604Z" fill="white"/>
<path d="M902.279 22.8047L856.471 73.6846L845.547 85.8275L811.524 123.605H789.66L834.607 73.6846L845.547 61.5417L880.415 22.8047H902.279Z" fill="url(#paint8_linear_89_108)"/>
<path d="M492.836 169.015L497.586 155.785H500.006L504.756 169.015H502.526L501.346 165.695H496.276L495.086 169.015H492.846H492.836ZM496.796 163.715H500.776L498.786 157.945L496.796 163.715Z" fill="white"/>
<path d="M527.116 169.195C526.676 169.195 526.246 169.155 525.816 169.065C525.386 168.975 525.086 168.905 524.906 168.845L524.986 166.775C525.166 166.835 525.376 166.895 525.616 166.975C525.856 167.055 526.126 167.085 526.446 167.085C527.056 167.085 527.466 166.915 527.686 166.595C527.906 166.265 528.016 165.725 528.016 164.975V155.785H530.246V165.585C530.246 166.375 530.156 167.035 529.986 167.565C529.816 168.095 529.496 168.505 529.046 168.785C528.596 169.065 527.956 169.205 527.116 169.205V169.195Z" fill="white"/>
<path d="M545.708 169.197C544.488 169.197 543.438 168.927 542.548 168.397C541.658 167.857 540.978 167.087 540.488 166.077C540.008 165.067 539.758 163.847 539.758 162.437C539.758 161.027 539.998 159.787 540.488 158.767C540.978 157.747 541.668 156.967 542.558 156.427C543.448 155.887 544.498 155.617 545.698 155.617C546.898 155.617 547.938 155.887 548.818 156.427C549.698 156.967 550.378 157.747 550.858 158.767C551.338 159.787 551.578 161.007 551.578 162.437C551.578 163.867 551.338 165.067 550.868 166.077C550.388 167.087 549.708 167.857 548.828 168.397C547.948 168.937 546.898 169.207 545.688 169.207L545.708 169.197ZM545.708 167.337C546.428 167.337 547.048 167.167 547.568 166.827C548.088 166.487 548.488 165.957 548.758 165.247C549.028 164.537 549.178 163.607 549.178 162.457C549.178 161.307 549.038 160.347 548.758 159.617C548.478 158.887 548.078 158.337 547.558 157.997C547.038 157.647 546.428 157.477 545.708 157.477C544.988 157.477 544.368 157.647 543.848 158.007C543.328 158.357 542.928 158.897 542.638 159.637C542.348 160.367 542.208 161.317 542.208 162.467C542.208 163.617 542.348 164.537 542.638 165.257C542.928 165.977 543.328 166.497 543.848 166.837C544.368 167.177 544.988 167.347 545.708 167.347V167.337Z" fill="white"/>
<path d="M566.304 169.197C565.084 169.197 564.104 168.997 563.354 168.587C562.604 168.177 562.064 167.597 561.734 166.827C561.394 166.057 561.234 165.137 561.234 164.047V155.777H563.514V164.277C563.514 165.297 563.764 166.057 564.264 166.547C564.764 167.037 565.444 167.277 566.304 167.277C566.884 167.277 567.384 167.167 567.814 166.957C568.244 166.747 568.574 166.417 568.804 165.977C569.034 165.537 569.154 164.967 569.154 164.277V155.777H571.404V164.177C571.404 165.227 571.234 166.127 570.894 166.867C570.554 167.607 570.004 168.187 569.264 168.587C568.524 168.987 567.534 169.187 566.314 169.187L566.304 169.197Z" fill="white"/>
<path d="M581.598 169.015V155.785H586.968C587.978 155.785 588.818 155.945 589.468 156.255C590.128 156.565 590.608 157.015 590.928 157.585C591.248 158.155 591.408 158.825 591.408 159.585C591.408 160.295 591.288 160.885 591.058 161.365C590.828 161.845 590.528 162.235 590.158 162.535C589.788 162.835 589.398 163.085 588.978 163.275L591.508 169.015H589.188L586.908 163.645H583.838V169.015H581.618H581.598ZM583.818 161.885H586.458C587.298 161.885 587.958 161.685 588.428 161.295C588.898 160.905 589.138 160.365 589.138 159.665C589.138 158.965 588.918 158.455 588.478 158.085C588.038 157.715 587.458 157.525 586.738 157.525H583.808V161.875L583.818 161.885Z" fill="white"/>
<path d="M601.484 169.015V155.785H603.664L610.144 165.235V155.785H612.364V169.015H610.364L603.714 159.305V169.015H601.494H601.484Z" fill="white"/>
<path d="M622.875 169.015V155.785H631.625V157.695H625.125V161.405H630.865V163.285H625.115V167.075H631.765V169.015H622.895H622.875Z" fill="white"/>
<path d="M645.205 169.015V163.415L640.645 155.785H643.065L646.335 161.475L649.545 155.785H651.975L647.425 163.425V169.015H645.205Z" fill="white"/>
<path d="M672.336 169.015V155.785H674.556V169.015H672.336Z" fill="white"/>
<path d="M685.074 169.015V155.785H687.254L693.734 165.235V155.785H695.954V169.015H693.954L687.304 159.305V169.015H685.084H685.074Z" fill="white"/>
<path d="M709.378 169.017V157.797H705.258V155.797H715.578V157.797H711.608V169.017H709.378Z" fill="white"/>
<path d="M730.067 169.197C728.847 169.197 727.797 168.927 726.907 168.397C726.017 167.857 725.337 167.087 724.847 166.077C724.357 165.067 724.117 163.847 724.117 162.437C724.117 161.027 724.357 159.787 724.847 158.767C725.337 157.747 726.027 156.967 726.917 156.427C727.807 155.887 728.857 155.617 730.057 155.617C731.257 155.617 732.297 155.887 733.177 156.427C734.057 156.967 734.737 157.747 735.217 158.767C735.697 159.787 735.937 161.007 735.937 162.437C735.937 163.867 735.697 165.067 735.227 166.077C734.747 167.087 734.067 167.857 733.187 168.397C732.307 168.937 731.257 169.207 730.047 169.207L730.067 169.197ZM730.067 167.337C730.787 167.337 731.407 167.167 731.927 166.827C732.447 166.487 732.847 165.957 733.117 165.247C733.397 164.527 733.537 163.607 733.537 162.457C733.537 161.307 733.397 160.347 733.117 159.617C732.837 158.887 732.437 158.337 731.917 157.997C731.397 157.647 730.787 157.477 730.067 157.477C729.347 157.477 728.727 157.647 728.207 158.007C727.687 158.357 727.287 158.897 726.997 159.637C726.707 160.367 726.567 161.317 726.567 162.467C726.567 163.617 726.707 164.537 726.997 165.257C727.287 165.977 727.687 166.497 728.207 166.837C728.727 167.177 729.347 167.347 730.067 167.347V167.337Z" fill="white"/>
<path d="M757.395 169.015V155.785H766.145V157.695H759.645V161.405H765.385V163.285H759.635V167.075H766.285V169.015H757.415H757.395Z" fill="white"/>
<path d="M775.605 169.015L780.045 162.285L775.755 155.785H778.495L781.435 160.415L784.355 155.785H786.755L782.615 162.015L787.255 169.015H784.495L781.235 163.925L778.035 169.015H775.615H775.605Z" fill="white"/>
<path d="M796.777 169.015V155.785H801.467C802.417 155.785 803.267 155.945 804.027 156.275C804.777 156.605 805.377 157.085 805.807 157.715C806.237 158.345 806.457 159.135 806.457 160.055C806.457 160.925 806.257 161.675 805.867 162.295C805.477 162.915 804.927 163.395 804.227 163.725C803.527 164.055 802.707 164.215 801.767 164.215H799.037V169.005H796.777V169.015ZM799.017 162.435H801.707C802.477 162.435 803.117 162.205 803.607 161.735C804.097 161.275 804.347 160.665 804.347 159.925C804.347 159.185 804.087 158.585 803.577 158.165C803.067 157.745 802.417 157.535 801.647 157.535H799.027V162.425L799.017 162.435Z" fill="white"/>
<path d="M815.895 169.015V155.785H824.645V157.695H818.145V161.405H823.885V163.285H818.135V167.075H824.785V169.015H815.915H815.895Z" fill="white"/>
<path d="M834.797 169.015V155.785H840.167C841.177 155.785 842.017 155.945 842.667 156.255C843.327 156.565 843.807 157.015 844.127 157.585C844.447 158.155 844.607 158.825 844.607 159.585C844.607 160.295 844.487 160.885 844.257 161.365C844.027 161.845 843.727 162.235 843.357 162.535C842.987 162.835 842.597 163.085 842.177 163.275L844.697 169.015H842.377L840.097 163.645H837.027V169.015H834.807H834.797ZM837.017 161.885H839.657C840.497 161.885 841.157 161.685 841.627 161.295C842.097 160.905 842.337 160.365 842.337 159.665C842.337 158.965 842.117 158.455 841.677 158.085C841.237 157.715 840.657 157.525 839.937 157.525H837.007V161.875L837.017 161.885Z" fill="white"/>
<path d="M854.688 169.015V155.785H856.908V169.015H854.688Z" fill="white"/>
<path d="M867.426 169.015V155.785H876.176V157.695H869.676V161.405H875.416V163.285H869.666V167.075H876.316V169.015H867.446H867.426Z" fill="white"/>
<path d="M886.324 169.015V155.785H888.504L894.984 165.235V155.785H897.204V169.015H895.204L888.554 159.305V169.015H886.334H886.324Z" fill="white"/>
<path d="M912.867 169.195C911.657 169.195 910.617 168.915 909.747 168.355C908.877 167.795 908.207 167.005 907.747 165.975C907.277 164.945 907.047 163.725 907.047 162.315C907.047 160.905 907.277 159.705 907.747 158.705C908.207 157.705 908.877 156.935 909.747 156.405C910.617 155.875 911.657 155.605 912.877 155.605C913.847 155.605 914.707 155.805 915.457 156.195C916.207 156.585 916.817 157.125 917.277 157.795C917.737 158.465 918.007 159.215 918.097 160.035H915.747C915.657 159.545 915.487 159.115 915.237 158.725C914.987 158.345 914.667 158.035 914.267 157.805C913.867 157.575 913.387 157.465 912.817 157.465C912.117 157.465 911.517 157.635 911.027 157.965C910.537 158.295 910.157 158.825 909.907 159.545C909.647 160.265 909.517 161.195 909.517 162.345C909.517 164.085 909.807 165.345 910.377 166.145C910.947 166.945 911.767 167.335 912.817 167.335C913.377 167.335 913.857 167.215 914.267 166.965C914.677 166.715 914.997 166.385 915.237 165.975C915.487 165.565 915.657 165.115 915.747 164.625H918.097C918.027 165.225 917.877 165.795 917.647 166.345C917.417 166.895 917.097 167.385 916.687 167.815C916.277 168.245 915.757 168.585 915.127 168.835C914.497 169.085 913.757 169.205 912.887 169.205L912.867 169.195Z" fill="white"/>
<path d="M927.926 169.015V155.785H936.676V157.695H930.176V161.405H935.916V163.285H930.166V167.075H936.816V169.015H927.946H927.926Z" fill="white"/>
<path d="M482.838 161.906H435.938V162.906H482.838V161.906Z" fill="url(#paint9_linear_89_108)"/>
<path d="M993.697 161.906H946.797V162.906H993.697V161.906Z" fill="url(#paint10_linear_89_108)"/>
<defs>
<linearGradient id="paint0_linear_89_108" x1="159.897" y1="3.61928e-06" x2="-16.2258" y2="156.347" gradientUnits="userSpaceOnUse">
<stop stop-color="#22D3EE"/>
<stop offset="0.55" stop-color="#2563EB"/>
<stop offset="1" stop-color="#4F46E5"/>
</linearGradient>
<linearGradient id="paint1_linear_89_108" x1="158.5" y1="218.5" x2="90.7955" y2="169.359" gradientUnits="userSpaceOnUse">
<stop stop-color="#22D3EE"/>
<stop offset="0.55" stop-color="#2563EB"/>
<stop offset="1" stop-color="#322BAA"/>
</linearGradient>
<linearGradient id="paint2_linear_89_108" x1="162" y1="137" x2="120.79" y2="186.221" gradientUnits="userSpaceOnUse">
<stop stop-color="#22D3EE"/>
<stop offset="0.55" stop-color="#2563EB"/>
<stop offset="1" stop-color="#322BAA"/>
</linearGradient>
<linearGradient id="paint3_linear_89_108" x1="262.16" y1="21.9711" x2="266.328" y2="28.9059" gradientUnits="userSpaceOnUse">
<stop offset="0.100755" stop-color="#60A5FA"/>
<stop offset="1" stop-color="#2563EB"/>
</linearGradient>
<linearGradient id="paint4_linear_89_108" x1="271.179" y1="21.9711" x2="275.348" y2="28.9058" gradientUnits="userSpaceOnUse">
<stop offset="0.100755" stop-color="#60A5FA"/>
<stop offset="1" stop-color="#2563EB"/>
</linearGradient>
<linearGradient id="paint5_linear_89_108" x1="280.199" y1="21.9711" x2="284.368" y2="28.9059" gradientUnits="userSpaceOnUse">
<stop offset="0.100755" stop-color="#60A5FA"/>
<stop offset="1" stop-color="#2563EB"/>
</linearGradient>
<linearGradient id="paint6_linear_89_108" x1="185.615" y1="84.1944" x2="234.368" y2="113.666" gradientUnits="userSpaceOnUse">
<stop offset="0.100755" stop-color="#60A5FA"/>
<stop offset="1" stop-color="#2563EB"/>
</linearGradient>
<linearGradient id="paint7_linear_89_108" x1="158.853" y1="41.8063" x2="199.72" y2="125.407" gradientUnits="userSpaceOnUse">
<stop offset="0.100755" stop-color="#60A5FA"/>
<stop offset="1" stop-color="#2563EB"/>
</linearGradient>
<linearGradient id="paint8_linear_89_108" x1="892.366" y1="22.8047" x2="799.566" y2="123.599" gradientUnits="userSpaceOnUse">
<stop stop-color="#22D3EE"/>
<stop offset="0.55" stop-color="#2563EB"/>
<stop offset="1" stop-color="#4F46E5"/>
</linearGradient>
<linearGradient id="paint9_linear_89_108" x1="435.7" y1="161.913" x2="435.719" y2="163.421" gradientUnits="userSpaceOnUse">
<stop offset="0.100755" stop-color="#60A5FA"/>
<stop offset="1" stop-color="#2563EB"/>
</linearGradient>
<linearGradient id="paint10_linear_89_108" x1="946.559" y1="161.913" x2="946.578" y2="163.421" gradientUnits="userSpaceOnUse">
<stop offset="0.100755" stop-color="#60A5FA"/>
<stop offset="1" stop-color="#2563EB"/>
</linearGradient>
</defs>
</svg>
